<?xml version="1.0" encoding="UTF-8" standalone="no"?>
<svg
   xmlns="http://www.w3.org/2000/svg"
   xmlns:xlink="http://www.w3.org/1999/xlink"
   version="1.1"
   width="128"
   height="128"
   id="svg-ai-chat">
  <defs
     id="defs-ai-chat">
    <linearGradient
       id="shadowGradient">
      <stop
         id="shadowStop1"
         style="stop-color:#000000;stop-opacity:1"
         offset="0" />
      <stop
         id="shadowStop2"
         style="stop-color:#000000;stop-opacity:0"
         offset="1" />
    </linearGradient>
    <radialGradient
       r="18"
       fy="38"
       fx="26"
       cy="38"
       cx="26"
       gradientTransform="matrix(2.8888888,0,0,0.77777775,-11.111109,74.444445)"
       gradientUnits="userSpaceOnUse"
       id="shadowRadial"
       xlink:href="#shadowGradient" />
    <linearGradient
       id="grapeGradient">
      <stop
         id="grapeStop1"
         style="stop-color:#e4c6fa;stop-opacity:1"
         offset="0" />
      <stop
         id="grapeStop2"
         style="stop-color:#cd9ef7;stop-opacity:1"
         offset="0.26238" />
      <stop
         id="grapeStop3"
         style="stop-color:#a56de2;stop-opacity:1"
         offset="0.66093999" />
      <stop
         id="grapeStop4"
         style="stop-color:#7239b3;stop-opacity:1"
         offset="1" />
    </linearGradient>
    <linearGradient
       x1="56.5"
       y1="16.5"
       x2="56.5"
       y2="95.5"
       gradientUnits="userSpaceOnUse"
       id="bodyGradient"
       xlink:href="#grapeGradient" />
    <linearGradient
       id="highlightGradient">
      <stop
         id="highlightStop1"
         style="stop-color:#ffffff;stop-opacity:1"
         offset="0" />
      <stop
         id="highlightStop2"
         style="stop-color:#ffffff;stop-opacity:0.23529412"
         offset="0.33333334" />
      <stop
         id="highlightStop3"
         style="stop-color:#ffffff;stop-opacity:0.15686275"
         offset="0.95056331" />
      <stop
         id="highlightStop4"
         style="stop-color:#ffffff;stop-opacity:0.39215687"
         offset="1" />
    </linearGradient>
    <linearGradient
       x1="56.5"
       y1="17.5"
       x2="56.5"
       y2="94.5"
       gradientUnits="userSpaceOnUse"
       id="innerHighlight"
       xlink:href="#highlightGradient" />
    <linearGradient
       x1="0"
       y1="0"
       x2="0"
       y2="1"
       id="insetFace">
      <stop
         id="insetStop1"
         style="stop-color:#cbbcdd;stop-opacity:1"
         offset="0" />
      <stop
         id="insetStop2"
         style="stop-color:#ffffff;stop-opacity:1"
         offset="0.55" />
    </linearGradient>
    <linearGradient
       x1="64.5"
       y1="78.5"
       x2="64.5"
       y2="87.5"
       gradientUnits="userSpaceOnUse"
       id="insetFaceMouth">
      <stop
         id="insetMouthStop1"
         style="stop-color:#cbbcdd;stop-opacity:1"
         offset="0" />
      <stop
         id="insetMouthStop2"
         style="stop-color:#ffffff;stop-opacity:1"
         offset="0.55" />
    </linearGradient>
  </defs>
  <g
     id="layer-ai-chat">
    <path
       d="m 116,104 a 52,14 0 0 1 -104,0 52,14 0 1 1 104,0 z"
       id="shadow"
       style="opacity:0.2;fill:url(#shadowRadial);fill-opacity:1;stroke:none" />
    <g
       id="bubble"
       transform="translate(8,10)">
      <path
         style="fill:url(#bodyGradient);fill-opacity:1;stroke:#452981;stroke-width:1;stroke-opacity:0.49803922"
         d="m 81.5,16.5 c 14.958,0 27,12.04089 27,26.997518 l 0,21.999448 c 0,14.956628 -12.042,26.997518 -27,26.997518 l -50,0 c -3.016658,0 -5.920404,-0.470248 -8.625,-1.374874 C 18.49117,94.891512 12.04216,95.67462 6.75,92.619472 6.385978,92.409324 6.02522,92.168884 5.6875,91.932036 8.401026,90.096822 10.903386,87.847464 13,85.182656 7.7686,80.264918 4.5,73.27634 4.5,65.496966 l 0,-21.999448 C 4.5,28.54089 16.542,16.5 31.5,16.5 l 50,0 z"
         id="bubble-body" />
      <path
         id="bubble-highlight"
         d="M 82.19853,17.499999 C 96,17.499999 107.5,29.5 107.5,43.472426 l 0,22.055148 c 0,14.553848 -10.747622,26.229846 -25.30147,26.229846 l -50.45956,0 c -2.939496,0 -5.937626,-0.525226 -8.560778,-1.40269 l -0.56767,-0.18922 -0.378446,0.378446 c -3.925571,3.37792 -10.451455,3.794678 -14.7592864,1.33318 2.3609988,-1.740422 4.4520444,-3.6631 6.3277234,-6.047316 l 0.56767,-0.756894 -0.693819,-0.630744 C 8.5896754,79.66192 5.4999996,73.087392 5.4999996,65.51845 l 0,-22.055148 c 0,-14.55385 11.6851244,-25.963303 26.2389704,-25.963303 z"
         style="fill:none;stroke:url(#innerHighlight);stroke-width:1;stroke-miterlimit:4;stroke-dasharray:none;stroke-opacity:0.49803922" />
    </g>
    <g
       id="face">
      <path
         style="opacity:0.5;fill:#452981;fill-opacity:1;stroke:none"
         d="m 49,42.5 c -2.485,0 -4.5,2.015 -4.5,4.5 l 0,15 c 0,2.485 2.015,4.5 4.5,4.5 2.485,0 4.5,-2.015 4.5,-4.5 l 0,-15 c 0,-2.485 -2.015,-4.5 -4.5,-4.5 z m 31,0 c -2.485,0 -4.5,2.015 -4.5,4.5 l 0,15 c 0,2.485 2.015,4.5 4.5,4.5 2.485,0 4.5,-2.015 4.5,-4.5 l 0,-15 c 0,-2.485 -2.015,-4.5 -4.5,-4.5 z"
         id="eyes-shadow" />
      <path
         style="fill:url(#insetFace);fill-opacity:1;stroke:none"
         d="m 49,44 c -2.485,0 -4.5,2.015 -4.5,4.5 l 0,15 c 0,2.485 2.015,4.5 4.5,4.5 2.485,0 4.5,-2.015 4.5,-4.5 l 0,-15 c 0,-2.485 -2.015,-4.5 -4.5,-4.5 z m 31,0 c -2.485,0 -4.5,2.015 -4.5,4.5 l 0,15 c 0,2.485 2.015,4.5 4.5,4.5 2.485,0 4.5,-2.015 4.5,-4.5 l 0,-15 c 0,-2.485 -2.015,-4.5 -4.5,-4.5 z"
         id="eyes" />
      <path
         style="opacity:0.5;fill:none;stroke:#452981;stroke-width:8;stroke-linecap:round;stroke-opacity:1"
         d="m 46,81 c 8.5,1.6 28.5,1.6 37,0"
         id="mouth-shadow" />
      <path
         style="fill:none;stroke:url(#insetFaceMouth);stroke-width:8;stroke-linecap:round;stroke-opacity:1"
         d="m 46,82.5 c 8.5,1.6 28.5,1.6 37,0"
         id="mouth" />
    </g>
  </g>
</svg>
