<?xml version="1.0" encoding="UTF-8" standalone="no"?>
<svg
   xmlns="http://www.w3.org/2000/svg"
   xmlns:xlink="http://www.w3.org/1999/xlink"
   version="1.1"
   width="16"
   height="16"
   id="svg-beckon-16">
  <defs
     id="defs-beckon-16">
    <linearGradient
       x1="8"
       y1="3.5"
       x2="8"
       y2="13.5"
       gradientUnits="userSpaceOnUse"
       id="bodyGradient">
      <stop
         id="grapeStop1"
         style="stop-color:#e4c6fa;stop-opacity:1"
         offset="0" />
      <stop
         id="grapeStop2"
         style="stop-color:#cd9ef7;stop-opacity:1"
         offset="0.26238" />
      <stop
         id="grapeStop3"
         style="stop-color:#a56de2;stop-opacity:1"
         offset="0.66093999" />
      <stop
         id="grapeStop4"
         style="stop-color:#7239b3;stop-opacity:1"
         offset="1" />
    </linearGradient>
    <linearGradient
       x1="8"
       y1="3.5"
       x2="8"
       y2="13.5"
       gradientUnits="userSpaceOnUse"
       id="innerHighlight">
      <stop
         id="highlightStop1"
         style="stop-color:#ffffff;stop-opacity:1"
         offset="0" />
      <stop
         id="highlightStop2"
         style="stop-color:#ffffff;stop-opacity:0.23529412"
         offset="0.49306786" />
      <stop
         id="highlightStop3"
         style="stop-color:#ffffff;stop-opacity:0.15686275"
         offset="0.91666669" />
      <stop
         id="highlightStop4"
         style="stop-color:#ffffff;stop-opacity:0.39215687"
         offset="1" />
    </linearGradient>
    <clipPath
       clipPathUnits="userSpaceOnUse"
       id="bubbleClip">
      <path
         id="bubbleClipPath"
         d="M 5.5,3.5 H 10.5 A 4,4 0 0 1 14.5,7.5 V 9.5 A 4,4 0 0 1 10.5,13.5 H 4.88 C 4.5,13.5 4.13,13.44 3.8,13.33 C 3.25,13.8 2.44,13.9 1.78,13.51 C 1.73,13.49 1.69,13.46 1.65,13.43 C 1.99,13.2 2.3,12.92 2.56,12.59 C 1.91,11.97 1.5,11.1 1.5,9.5 V 7.5 A 4,4 0 0 1 5.5,3.5 Z"
         style="fill:#000000;fill-opacity:1;stroke:none" />
    </clipPath>
  </defs>
  <g
     id="layer-beckon-16">
    <path
       style="fill:url(#bodyGradient);fill-opacity:1;stroke:#452981;stroke-width:1;stroke-linejoin:round;stroke-opacity:0.49803922"
       d="M 5.5,3.5 H 10.5 A 4,4 0 0 1 14.5,7.5 V 9.5 A 4,4 0 0 1 10.5,13.5 H 4.88 C 4.5,13.5 4.13,13.44 3.8,13.33 C 3.25,13.8 2.44,13.9 1.78,13.51 C 1.73,13.49 1.69,13.46 1.65,13.43 C 1.99,13.2 2.3,12.92 2.56,12.59 C 1.91,11.97 1.5,11.1 1.5,9.5 V 7.5 A 4,4 0 0 1 5.5,3.5 Z"
       id="bubble-body" />
    <path
       clip-path="url(#bubbleClip)"
       style="fill:none;stroke:url(#innerHighlight);stroke-width:2;stroke-linejoin:round;stroke-miterlimit:4;stroke-dasharray:none;stroke-opacity:0.49803922"
       d="M 5.5,3.5 H 10.5 A 4,4 0 0 1 14.5,7.5 V 9.5 A 4,4 0 0 1 10.5,13.5 H 4.88 C 4.5,13.5 4.13,13.44 3.8,13.33 C 3.25,13.8 2.44,13.9 1.78,13.51 C 1.73,13.49 1.69,13.46 1.65,13.43 C 1.99,13.2 2.3,12.92 2.56,12.59 C 1.91,11.97 1.5,11.1 1.5,9.5 V 7.5 A 4,4 0 0 1 5.5,3.5 Z"
       id="bubble-highlight" />
    <path
       style="fill:#ffffff;fill-opacity:1;stroke:none"
       d="m 5,5 0,3 2,0 0,-3 -2,0 z m 4,0 0,3 2,0 0,-3 -2,0 z m -4,5 0,1 6,0 0,-1 -6,0 z"
       id="face-white" />
  </g>
</svg>
