<?xml version="1.0" encoding="UTF-8" standalone="no"?>
<svg
   xmlns="http://www.w3.org/2000/svg"
   xmlns:xlink="http://www.w3.org/1999/xlink"
   version="1.1"
   width="24"
   height="24"
   id="svg-beckon-24">
  <defs
     id="defs-beckon-24">
    <radialGradient
       cx="0.5"
       cy="0.5"
       r="0.5"
       id="shadowRadial">
      <stop
         id="shadowStop1"
         style="stop-color:#000000;stop-opacity:1"
         offset="0" />
      <stop
         id="shadowStop2"
         style="stop-color:#000000;stop-opacity:0"
         offset="1" />
    </radialGradient>
    <linearGradient
       x1="12"
       y1="5.5"
       x2="12"
       y2="19.5"
       gradientUnits="userSpaceOnUse"
       id="bodyGradient">
      <stop
         id="grapeStop1"
         style="stop-color:#e4c6fa;stop-opacity:1"
         offset="0" />
      <stop
         id="grapeStop2"
         style="stop-color:#cd9ef7;stop-opacity:1"
         offset="0.26238" />
      <stop
         id="grapeStop3"
         style="stop-color:#a56de2;stop-opacity:1"
         offset="0.66093999" />
      <stop
         id="grapeStop4"
         style="stop-color:#7239b3;stop-opacity:1"
         offset="1" />
    </linearGradient>
    <linearGradient
       x1="12"
       y1="5.5"
       x2="12"
       y2="19.5"
       gradientUnits="userSpaceOnUse"
       id="innerHighlight">
      <stop
         id="highlightStop1"
         style="stop-color:#ffffff;stop-opacity:1"
         offset="0" />
      <stop
         id="highlightStop2"
         style="stop-color:#ffffff;stop-opacity:0.23529412"
         offset="0.33333334" />
      <stop
         id="highlightStop3"
         style="stop-color:#ffffff;stop-opacity:0.15686275"
         offset="0.95056331" />
      <stop
         id="highlightStop4"
         style="stop-color:#ffffff;stop-opacity:0.39215687"
         offset="1" />
    </linearGradient>
    <clipPath
       clipPathUnits="userSpaceOnUse"
       id="bubbleClip">
      <path
         id="bubbleClipPath"
         d="M 7.5,5.5 H 16.5 A 5,5 0 0 1 21.5,10.5 V 14.5 A 5,5 0 0 1 16.5,19.5 H 7.56 C 6.99,19.5 6.45,19.41 5.95,19.24 C 5.12,19.95 3.91,20.1 2.92,19.52 C 2.85,19.48 2.79,19.43 2.72,19.39 C 3.23,19.05 3.7,18.63 4.09,18.13 C 3.11,17.21 2.5,15.9 2.5,14.5 V 10.5 A 5,5 0 0 1 7.5,5.5 Z"
         style="fill:#000000;fill-opacity:1;stroke:none" />
    </clipPath>
  </defs>
  <g
     id="layer-beckon-24">
    <ellipse
       cx="12"
       cy="20"
       rx="10"
       ry="3"
       id="shadow"
       style="opacity:0.2;fill:url(#shadowRadial);fill-opacity:1;stroke:none" />
    <path
       style="fill:url(#bodyGradient);fill-opacity:1;stroke:#452981;stroke-width:1;stroke-opacity:0.49803922"
       d="M 7.5,5.5 H 16.5 A 5,5 0 0 1 21.5,10.5 V 14.5 A 5,5 0 0 1 16.5,19.5 H 7.56 C 6.99,19.5 6.45,19.41 5.95,19.24 C 5.12,19.95 3.91,20.1 2.92,19.52 C 2.85,19.48 2.79,19.43 2.72,19.39 C 3.23,19.05 3.7,18.63 4.09,18.13 C 3.11,17.21 2.5,15.9 2.5,14.5 V 10.5 A 5,5 0 0 1 7.5,5.5 Z"
       id="bubble-body" />
    <path
       clip-path="url(#bubbleClip)"
       style="fill:none;stroke:url(#innerHighlight);stroke-width:2;stroke-miterlimit:4;stroke-dasharray:none;stroke-opacity:0.49803922"
       d="M 7.5,5.5 H 16.5 A 5,5 0 0 1 21.5,10.5 V 14.5 A 5,5 0 0 1 16.5,19.5 H 7.56 C 6.99,19.5 6.45,19.41 5.95,19.24 C 5.12,19.95 3.91,20.1 2.92,19.52 C 2.85,19.48 2.79,19.43 2.72,19.39 C 3.23,19.05 3.7,18.63 4.09,18.13 C 3.11,17.21 2.5,15.9 2.5,14.5 V 10.5 A 5,5 0 0 1 7.5,5.5 Z"
       id="bubble-highlight" />
    <g
       id="face">
      <path
         style="opacity:0.5;fill:#452981;fill-opacity:1;stroke:none"
         d="m 9,8 c -0.552,0 -1,0.448 -1,1 0,0.552 0,1.448 0,2 0,0.552 0.448,1 1,1 0.552,0 1,-0.448 1,-1 0,-0.552 0,-1.448 0,-2 0,-0.552 -0.448,-1 -1,-1 z m 6,0 c -0.552,0 -1,0.448 -1,1 0,0.552 0,1.448 0,2 0,0.552 0.448,1 1,1 0.552,0 1,-0.448 1,-1 0,-0.552 0,-1.448 0,-2 0,-0.552 -0.448,-1 -1,-1 z m -6,6 c -0.552,0 -1,0.448 -1,1 0,0.552 0.448,1 1,1 l 6,0 c 0.552,0 1,-0.448 1,-1 0,-0.552 -0.448,-1 -1,-1 l -6,0 z"
         id="face-shadow" />
      <path
         style="fill:#ffffff;fill-opacity:1;stroke:none"
         d="m 9,9 c -0.552,0 -1,0.448 -1,1 0,0.552 0,1.448 0,2 0,0.552 0.448,1 1,1 0.552,0 1,-0.448 1,-1 0,-0.552 0,-1.448 0,-2 0,-0.552 -0.448,-1 -1,-1 z m 6,0 c -0.552,0 -1,0.448 -1,1 0,0.552 0,1.448 0,2 0,0.552 0.448,1 1,1 0.552,0 1,-0.448 1,-1 0,-0.552 0,-1.448 0,-2 0,-0.552 -0.448,-1 -1,-1 z m -6,6 c -0.552,0 -1,0.448 -1,1 0,0.552 0.448,1 1,1 l 6,0 c 0.552,0 1,-0.448 1,-1 0,-0.552 -0.448,-1 -1,-1 l -6,0 z"
         id="face-white" />
    </g>
  </g>
</svg>
