<?xml version="1.0" encoding="UTF-8" standalone="no"?>
<svg
   xmlns="http://www.w3.org/2000/svg"
   xmlns:xlink="http://www.w3.org/1999/xlink"
   version="1.1"
   width="32"
   height="32"
   id="svg-beckon-32">
  <defs
     id="defs-beckon-32">
    <radialGradient
       cx="0.5"
       cy="0.5"
       r="0.5"
       id="shadowRadial">
      <stop
         id="shadowStop1"
         style="stop-color:#000000;stop-opacity:1"
         offset="0" />
      <stop
         id="shadowStop2"
         style="stop-color:#000000;stop-opacity:0"
         offset="1" />
    </radialGradient>
    <linearGradient
       x1="16.5"
       y1="6.5"
       x2="16.5"
       y2="25.5"
       gradientUnits="userSpaceOnUse"
       id="bodyGradient">
      <stop
         id="grapeStop1"
         style="stop-color:#e4c6fa;stop-opacity:1"
         offset="0" />
      <stop
         id="grapeStop2"
         style="stop-color:#cd9ef7;stop-opacity:1"
         offset="0.26238" />
      <stop
         id="grapeStop3"
         style="stop-color:#a56de2;stop-opacity:1"
         offset="0.66093999" />
      <stop
         id="grapeStop4"
         style="stop-color:#7239b3;stop-opacity:1"
         offset="1" />
    </linearGradient>
    <linearGradient
       x1="16.5"
       y1="6.5"
       x2="16.5"
       y2="25.5"
       gradientUnits="userSpaceOnUse"
       id="innerHighlight">
      <stop
         id="highlightStop1"
         style="stop-color:#ffffff;stop-opacity:1"
         offset="0" />
      <stop
         id="highlightStop2"
         style="stop-color:#ffffff;stop-opacity:0.23529412"
         offset="0.33333334" />
      <stop
         id="highlightStop3"
         style="stop-color:#ffffff;stop-opacity:0.15686275"
         offset="0.95056331" />
      <stop
         id="highlightStop4"
         style="stop-color:#ffffff;stop-opacity:0.39215687"
         offset="1" />
    </linearGradient>
    <clipPath
       clipPathUnits="userSpaceOnUse"
       id="bubbleClip">
      <path
         id="bubbleClipPath"
         d="M 10,6.5 H 23 A 6.5,6.5 0 0 1 29.5,13 V 19 A 6.5,6.5 0 0 1 23,25.5 H 10.25 C 9.5,25.5 8.77,25.38 8.09,25.16 C 7,26.1 5.39,26.29 4.06,25.53 C 3.97,25.48 3.88,25.42 3.8,25.36 C 4.48,24.9 5.1,24.34 5.63,23.67 C 4.32,22.4 3.5,20.8 3.5,19 V 13 A 6.5,6.5 0 0 1 10,6.5 Z"
         style="fill:#000000;fill-opacity:1;stroke:none" />
    </clipPath>
  </defs>
  <g
     id="layer-beckon-32">
    <ellipse
       cx="16.5"
       cy="26"
       rx="13"
       ry="3.5"
       id="shadow"
       style="opacity:0.2;fill:url(#shadowRadial);fill-opacity:1;stroke:none" />
    <path
       style="fill:url(#bodyGradient);fill-opacity:1;stroke:#452981;stroke-width:1;stroke-opacity:0.49803922"
       d="M 10,6.5 H 23 A 6.5,6.5 0 0 1 29.5,13 V 19 A 6.5,6.5 0 0 1 23,25.5 H 10.25 C 9.5,25.5 8.77,25.38 8.09,25.16 C 7,26.1 5.39,26.29 4.06,25.53 C 3.97,25.48 3.88,25.42 3.8,25.36 C 4.48,24.9 5.1,24.34 5.63,23.67 C 4.32,22.4 3.5,20.8 3.5,19 V 13 A 6.5,6.5 0 0 1 10,6.5 Z"
       id="bubble-body" />
    <path
       clip-path="url(#bubbleClip)"
       style="fill:none;stroke:url(#innerHighlight);stroke-width:2;stroke-miterlimit:4;stroke-dasharray:none;stroke-opacity:0.49803922"
       d="M 10,6.5 H 23 A 6.5,6.5 0 0 1 29.5,13 V 19 A 6.5,6.5 0 0 1 23,25.5 H 10.25 C 9.5,25.5 8.77,25.38 8.09,25.16 C 7,26.1 5.39,26.29 4.06,25.53 C 3.97,25.48 3.88,25.42 3.8,25.36 C 4.48,24.9 5.1,24.34 5.63,23.67 C 4.32,22.4 3.5,20.8 3.5,19 V 13 A 6.5,6.5 0 0 1 10,6.5 Z"
       id="bubble-highlight" />
    <g
       id="face">
      <path
         style="opacity:0.5;fill:#452981;fill-opacity:1;stroke:none"
         d="m 12,10 c -0.552,0 -1,0.448 -1,1 l 0,4 c 0,0.552 0.448,1 1,1 0.552,0 1,-0.448 1,-1 l 0,-4 c 0,-0.552 -0.448,-1 -1,-1 z m 9,0 c -0.552,0 -1,0.448 -1,1 l 0,4 c 0,0.552 0.448,1 1,1 0.552,0 1,-0.448 1,-1 l 0,-4 c 0,-0.552 -0.448,-1 -1,-1 z m -9,9 c -0.552,0 -1,0.448 -1,1 0,0.552 0.448,1 1,1 l 9,0 c 0.552,0 1,-0.448 1,-1 0,-0.552 -0.448,-1 -1,-1 l -9,0 z"
         id="face-shadow" />
      <path
         style="fill:#ffffff;fill-opacity:1;stroke:none"
         d="m 12,11 c -0.552,0 -1,0.448 -1,1 l 0,4 c 0,0.552 0.448,1 1,1 0.552,0 1,-0.448 1,-1 l 0,-4 c 0,-0.552 -0.448,-1 -1,-1 z m 9,0 c -0.552,0 -1,0.448 -1,1 l 0,4 c 0,0.552 0.448,1 1,1 0.552,0 1,-0.448 1,-1 l 0,-4 c 0,-0.552 -0.448,-1 -1,-1 z m -9,9 c -0.552,0 -1,0.448 -1,1 0,0.552 0.448,1 1,1 l 9,0 c 0.552,0 1,-0.448 1,-1 0,-0.552 -0.448,-1 -1,-1 l -9,0 z"
         id="face-white" />
    </g>
  </g>
</svg>
