<?xml version="1.0" encoding="UTF-8" standalone="no"?>
<svg
   xmlns="http://www.w3.org/2000/svg"
   xmlns:xlink="http://www.w3.org/1999/xlink"
   version="1.1"
   width="64"
   height="64"
   id="svg-beckon-64">
  <defs
     id="defs-beckon-64">
    <radialGradient
       cx="0.5"
       cy="0.5"
       r="0.5"
       id="shadowRadial">
      <stop
         id="shadowStop1"
         style="stop-color:#000000;stop-opacity:1"
         offset="0" />
      <stop
         id="shadowStop2"
         style="stop-color:#000000;stop-opacity:0"
         offset="1" />
    </radialGradient>
    <linearGradient
       x1="32.5"
       y1="13.5"
       x2="32.5"
       y2="51.5"
       gradientUnits="userSpaceOnUse"
       id="bodyGradient">
      <stop
         id="grapeStop1"
         style="stop-color:#e4c6fa;stop-opacity:1"
         offset="0" />
      <stop
         id="grapeStop2"
         style="stop-color:#cd9ef7;stop-opacity:1"
         offset="0.26238" />
      <stop
         id="grapeStop3"
         style="stop-color:#a56de2;stop-opacity:1"
         offset="0.66093999" />
      <stop
         id="grapeStop4"
         style="stop-color:#7239b3;stop-opacity:1"
         offset="1" />
    </linearGradient>
    <linearGradient
       x1="32.5"
       y1="13.5"
       x2="32.5"
       y2="51.5"
       gradientUnits="userSpaceOnUse"
       id="innerHighlight">
      <stop
         id="highlightStop1"
         style="stop-color:#ffffff;stop-opacity:1"
         offset="0" />
      <stop
         id="highlightStop2"
         style="stop-color:#ffffff;stop-opacity:0.23529412"
         offset="0.33333334" />
      <stop
         id="highlightStop3"
         style="stop-color:#ffffff;stop-opacity:0.15686275"
         offset="0.95056331" />
      <stop
         id="highlightStop4"
         style="stop-color:#ffffff;stop-opacity:0.39215687"
         offset="1" />
    </linearGradient>
    <clipPath
       clipPathUnits="userSpaceOnUse"
       id="bubbleClip">
      <path
         id="bubbleClipPath"
         d="M 20,13.5 H 45 A 13.5,13.5 0 0 1 58.5,27 V 38 A 13.5,13.5 0 0 1 45,51.5 H 20 C 18.49,51.5 17.04,51.27 15.69,50.81 C 13.5,52.7 10.27,53.09 7.63,51.56 C 7.44,51.45 7.26,51.33 7.09,51.22 C 8.45,50.3 9.7,49.17 10.75,47.84 C 8.13,45.38 6.5,41.89 6.5,38 V 27 A 13.5,13.5 0 0 1 20,13.5 Z"
         style="fill:#000000;fill-opacity:1;stroke:none" />
    </clipPath>
    <linearGradient
       x1="0"
       y1="0"
       x2="0"
       y2="1"
       id="insetFace">
      <stop
         id="insetStop1"
         style="stop-color:#cbbcdd;stop-opacity:1"
         offset="0" />
      <stop
         id="insetStop2"
         style="stop-color:#ffffff;stop-opacity:1"
         offset="0.55" />
    </linearGradient>
    <linearGradient
       x1="32.5"
       y1="39.5"
       x2="32.5"
       y2="44"
       gradientUnits="userSpaceOnUse"
       id="insetFaceMouth">
      <stop
         id="insetMouthStop1"
         style="stop-color:#cbbcdd;stop-opacity:1"
         offset="0" />
      <stop
         id="insetMouthStop2"
         style="stop-color:#ffffff;stop-opacity:1"
         offset="0.55" />
    </linearGradient>
  </defs>
  <g
     id="layer-beckon-64">
    <ellipse
       cx="32.5"
       cy="52"
       rx="26"
       ry="7"
       id="shadow"
       style="opacity:0.2;fill:url(#shadowRadial);fill-opacity:1;stroke:none" />
    <path
       style="fill:url(#bodyGradient);fill-opacity:1;stroke:#452981;stroke-width:1;stroke-opacity:0.49803922"
       d="M 20,13.5 H 45 A 13.5,13.5 0 0 1 58.5,27 V 38 A 13.5,13.5 0 0 1 45,51.5 H 20 C 18.49,51.5 17.04,51.27 15.69,50.81 C 13.5,52.7 10.27,53.09 7.63,51.56 C 7.44,51.45 7.26,51.33 7.09,51.22 C 8.45,50.3 9.7,49.17 10.75,47.84 C 8.13,45.38 6.5,41.89 6.5,38 V 27 A 13.5,13.5 0 0 1 20,13.5 Z"
       id="bubble-body" />
    <path
       clip-path="url(#bubbleClip)"
       style="fill:none;stroke:url(#innerHighlight);stroke-width:2;stroke-miterlimit:4;stroke-dasharray:none;stroke-opacity:0.49803922"
       d="M 20,13.5 H 45 A 13.5,13.5 0 0 1 58.5,27 V 38 A 13.5,13.5 0 0 1 45,51.5 H 20 C 18.49,51.5 17.04,51.27 15.69,50.81 C 13.5,52.7 10.27,53.09 7.63,51.56 C 7.44,51.45 7.26,51.33 7.09,51.22 C 8.45,50.3 9.7,49.17 10.75,47.84 C 8.13,45.38 6.5,41.89 6.5,38 V 27 A 13.5,13.5 0 0 1 20,13.5 Z"
       id="bubble-highlight" />
    <g
       id="face">
      <path
         style="opacity:0.5;fill:#452981;fill-opacity:1;stroke:none"
         d="m 24.5,21 c -1.381,0 -2.5,1.119 -2.5,2.5 l 0,7 c 0,1.381 1.119,2.5 2.5,2.5 1.381,0 2.5,-1.119 2.5,-2.5 l 0,-7 c 0,-1.381 -1.119,-2.5 -2.5,-2.5 z m 16,0 c -1.381,0 -2.5,1.119 -2.5,2.5 l 0,7 c 0,1.381 1.119,2.5 2.5,2.5 1.381,0 2.5,-1.119 2.5,-2.5 l 0,-7 c 0,-1.381 -1.119,-2.5 -2.5,-2.5 z"
         id="eyes-shadow" />
      <path
         style="fill:url(#insetFace);fill-opacity:1;stroke:none"
         d="m 24.5,22 c -1.381,0 -2.5,1.119 -2.5,2.5 l 0,7 c 0,1.381 1.119,2.5 2.5,2.5 1.381,0 2.5,-1.119 2.5,-2.5 l 0,-7 c 0,-1.381 -1.119,-2.5 -2.5,-2.5 z m 16,0 c -1.381,0 -2.5,1.119 -2.5,2.5 l 0,7 c 0,1.381 1.119,2.5 2.5,2.5 1.381,0 2.5,-1.119 2.5,-2.5 l 0,-7 c 0,-1.381 -1.119,-2.5 -2.5,-2.5 z"
         id="eyes" />
      <path
         style="opacity:0.5;fill:none;stroke:#452981;stroke-width:4;stroke-linecap:round;stroke-opacity:1"
         d="m 23,40.5 c 4.25,0.8 14.25,0.8 18.5,0"
         id="mouth-shadow" />
      <path
         style="fill:none;stroke:url(#insetFaceMouth);stroke-width:4;stroke-linecap:round;stroke-opacity:1"
         d="m 23,41.5 c 4.25,0.8 14.25,0.8 18.5,0"
         id="mouth" />
    </g>
  </g>
</svg>
